# xmcd
#
# Track frame offsets: 
#        150
#        10882
#        24351
#        33908
#        47664
#        59172
#        71643
#        82702
#        97883
#        108137
#        118828
#        129463
#        142815
#        152738
#
# Disc length: 2163 seconds
#
# Revision: 1
# Processed by: cddbd v1.5.2PL0 Copyright (c) Steve Scherf et al.
# Submitted via: ExactAudioCopyFreeDBPlugin 1.0
#
DISCID=aa08710e
DTITLE=Crazy Cavan and The Rythm Rockers - Rough, Tough 'n' Ready
DYEAR=1989
DGENRE=Teddyboy
TTITLE0=Rough, Tough 'n' Ready
TTITLE1=Spare Time Hobby
TTITLE2=Howlin' In The Dark
TTITLE3=My Idea Of Heaven
TTITLE4=Teenage Dream
TTITLE5=Hard Workin'
TTITLE6=Hello Josephine
TTITLE7=Fantasy
TTITLE8=Good Feelin'
TTITLE9=Oh Babe
TTITLE10=Four Star Hotel Blues
TTITLE11=Sunshine
TTITLE12=Stop Jumpin' The Gun
TTITLE13=Sideways Shuffle
EXTD=
EXTT0=
EXTT1=
EXTT2=
EXTT3=
EXTT4=
EXTT5=
EXTT6=
EXTT7=
EXTT8=
EXTT9=
EXTT10=
EXTT11=
EXTT12=
EXTT13=
PLAYORDER=
